# xmcd
#
# Track frame offsets: 
#        150
#        12292
#        25357
#        39209
#        67626
#        81306
#        93861
#        105321
#        115978
#        128945
#        143420
#        155997
#        171207
#        189417
#        208714
#        224141
#        261881
#        275013
#        295840
#        312992
#
# Disc length: 4434 seconds
#
# Revision: 3
# Processed by: cddbd v1.5.2PL0 Copyright (c) Steve Scherf et al.
# Submitted via: ExactAudioCopy v1.1
#
DISCID=21115014
DTITLE=The Soul Children - Soul Children - Best Of Two Worlds
DYEAR=1995
DGENRE=R&B
TTITLE0=I'll Understand (stereo)
TTITLE1=Move Over (stereo)
TTITLE2=When Tomorrow Comes (stereo)
TTITLE3=The Sweeter He Is (Parts 1 and 2) (stereo)
TTITLE4=Tighten Up My Thang (stereo)
TTITLE5=Give 'Em Love (stereo)
TTITLE6=Doin' Our Thang (stereo)
TTITLE7=Take Up The Slack (stereo)
TTITLE8=Super Soul (stereo)
TTITLE9=My Baby Specializes (stereo)
TTITLE10=Bring It Here
TTITLE11=Thank's For a Precious Nothing
TTITLE12=Put Your World In My World
TTITLE13=Give Me One Good Reason Why
TTITLE14=Got To Get Away From It All
TTITLE15=The Hangup of Holding On (Part 1 and 2)
TTITLE16=Wrap It Up Tonight
TTITLE17=lLet's Make A Sweet Thing Sweeter
TTITLE18=Finish Me Off
TTITLE19=Don't Break Away
EXTD=
EXTT0=
EXTT1=
EXTT2=
EXTT3=
EXTT4=
EXTT5=
EXTT6=
EXTT7=
EXTT8=
EXTT9=
EXTT10=
EXTT11=
EXTT12=
EXTT13=
EXTT14=
EXTT15=
EXTT16=
EXTT17=
EXTT18=
EXTT19=
PLAYORDER=
